<?xml version="1.0" encoding="utf-8"?>
<!-- Svg Vector Icons : http://www.onlinewebfonts.com/icon -->
<!DOCTYPE svg PUBLIC "-//W3C//DTD SVG 1.1//EN" "http://www.w3.org/Graphics/SVG/1.1/DTD/svg11.dtd">
<svg version="1.1" xmlns="http://www.w3.org/2000/svg" xmlns:xlink="http://www.w3.org/1999/xlink" x="0px" y="0px" viewBox="0 0 256 256" enable-background="new 0 0 256 256" xml:space="preserve">
<metadata> Svg Vector Icons : http://www.onlinewebfonts.com/icon </metadata>
<g><g><path fill="#000000" d="M243.9,19.8c-3.7-7-9.5-10.4-17.4-10.4c-32.7,0-65.8,0-98.5,0c-12.4,0-24.8,0-37.2,0c-20.7,0-41.4,0-62.1,0c-10.4,0-17.4,6.2-18.6,16.2c0,0.8,0.4,2.5,0.8,2.9C36.9,58.3,63,87.3,89.5,116.7c1.3,1.3,1.7,2.5,1.7,4.6c0,27.3,0,54.2,0,81.5c0,12,5.8,21.1,16.6,26.5c7.4,3.7,15.3,6.2,22.8,9.5c6.2,2.5,12,5,18.2,7c6.2,2.1,12-0.8,14.1-6.2c0.8-2.1,1.3-5,1.3-7.4c0-36.8,0-73.7,0-110.5c0-1.7,0.4-2.9,1.7-4.1c9.5-10.8,19.5-21.5,29-32.3c16.6-18.6,33.5-37.2,50.1-55.9c0.4-0.4,1.3-1.7,1.3-2.5C245.1,24.4,245.1,21.9,243.9,19.8z M219,30.6c-20.7,22.8-41,45.6-61.7,68.3c-0.4,0.4-5.4,5.4-11.6,11.2c0,34.8,0,82,0,114.7c-0.8-0.4-1.7-0.4-2.1-0.8c-8.7-3.3-17.4-7-26.1-10.4c-5.4-2.1-7.9-6.2-7.9-12c0-26.5,0-53,0-79.9c0-0.4,0-6.2,0-11.6C104,104.3,99,99.7,98.6,99.3c-21.5-23.2-42.2-46.8-63.3-70c-0.4-0.4-0.8-0.8-1.3-1.7c62.5,0,124.6,0,187.5,0C220.3,29,219.9,29.8,219,30.6z"/></g></g>
</svg>